<svg width="34" height="34" viewBox="0 0 34 34" fill="none" xmlns="http://www.w3.org/2000/svg">
<path d="M19.125 26.9167C19.2992 26.9167 19.4721 26.853 19.6081 26.7255C19.8942 26.4591 19.9084 26.01 19.6421 25.7239L13.7742 19.448C13.107 18.7808 12.75 17.918 12.75 16.9986C12.75 16.0792 13.107 15.2165 13.7572 14.5662L19.6421 8.2748C19.9084 7.98863 19.8942 7.53955 19.6081 7.27321C19.3233 7.0083 18.8742 7.01963 18.6065 7.3058L12.7386 13.5816C11.8376 14.4826 11.3319 15.701 11.3319 16.9986C11.3319 18.2963 11.8376 19.5146 12.7542 20.4326L18.6051 26.6915C18.7453 26.8402 18.9337 26.9153 19.1221 26.9153L19.125 26.9167Z" fill="#DBD7D7"/>
</svg>
