<svg width="34" height="34" viewBox="0 0 34 34" fill="none" xmlns="http://www.w3.org/2000/svg">
<path d="M14.875 26.9167C14.7008 26.9167 14.5279 26.853 14.3919 26.7255C14.1058 26.4591 14.0916 26.01 14.3579 25.7239L20.2258 19.448C20.893 18.7808 21.25 17.918 21.25 16.9986C21.25 16.0792 20.893 15.2165 20.2428 14.5662L14.3579 8.2748C14.0916 7.98863 14.1058 7.53955 14.3919 7.27321C14.6767 7.0083 15.1258 7.01963 15.3935 7.3058L21.2614 13.5816C22.1624 14.4826 22.6681 15.701 22.6681 16.9986C22.6681 18.2963 22.1624 19.5146 21.2458 20.4326L15.3949 26.6915C15.2547 26.8402 15.0663 26.9153 14.8779 26.9153L14.875 26.9167Z" fill="#DBD7D7"/>
</svg>
