<svg width="24" height="24" viewBox="0 0 24 24" fill="none" xmlns="http://www.w3.org/2000/svg">
<path d="M22.3051 2.87L20.0241 7.492C18.3851 5.741 16.1841 4.532 13.7051 4.145L14.6501 2.23C15.3291 0.854 16.7031 0 18.2371 0H20.5201C21.2121 0 21.8441 0.351 22.2091 0.939C22.5751 1.527 22.6111 2.249 22.3051 2.87ZM10.2951 4.145L9.35006 2.23C8.67106 0.854 7.29706 0 5.76306 0H3.50306C2.81106 0 2.17906 0.351 1.81406 0.938C1.44806 1.527 1.41306 2.249 1.71906 2.87L3.99106 7.477C5.62806 5.734 7.82406 4.531 10.2951 4.145ZM21.0011 15C21.0011 19.963 16.9631 24 12.0011 24C7.03906 24 3.00006 19.963 3.00006 15C3.00006 10.037 7.03806 6 12.0001 6C16.9621 6 21.0011 10.037 21.0011 15ZM16.1581 14.41C16.1581 14.104 15.8921 13.766 15.4621 13.766H13.3221L12.7551 11.591C12.6651 11.246 12.3561 11.006 12.0001 11C11.6451 11.007 11.3351 11.246 11.2451 11.591L10.6781 13.766H8.53806C8.10806 13.766 7.84206 14.103 7.84206 14.41C7.84206 14.771 8.09306 15.075 8.38106 15.235L9.87106 16.063L9.21006 17.866C9.08206 18.215 9.19806 18.607 9.49506 18.831C9.79906 19.06 10.2181 19.057 10.5181 18.824L12.0001 17.678L13.4821 18.824C13.7831 19.056 14.2021 19.059 14.5051 18.831C14.8021 18.607 14.9181 18.216 14.7901 17.866L14.1291 16.063L15.6191 15.235C15.9071 15.075 16.1581 14.771 16.1581 14.41Z" fill="#D9D9D9"/>
</svg>
