<svg width="214" height="84" viewBox="0 0 214 84" fill="none" xmlns="http://www.w3.org/2000/svg">
<circle cx="1.67188" cy="1.67188" r="1.67188" fill="#1F1F1E"/>
<circle cx="1.67188" cy="21.7344" r="1.67188" fill="#1F1F1E"/>
<circle cx="1.67188" cy="41.7969" r="1.67188" fill="#1F1F1E"/>
<circle cx="1.67188" cy="61.8594" r="1.67188" fill="#1F1F1E"/>
<circle cx="1.67188" cy="81.9219" r="1.67188" fill="#1F1F1E"/>
<circle cx="31.7656" cy="1.67188" r="1.67188" fill="#1F1F1E"/>
<circle cx="31.7656" cy="21.7344" r="1.67188" fill="#1F1F1E"/>
<circle cx="31.7656" cy="41.7969" r="1.67188" fill="#1F1F1E"/>
<circle cx="31.7656" cy="61.8594" r="1.67188" fill="#1F1F1E"/>
<circle cx="31.7656" cy="81.9219" r="1.67188" fill="#1F1F1E"/>
<circle cx="61.8594" cy="1.67188" r="1.67188" fill="#1F1F1E"/>
<circle cx="61.8594" cy="21.7344" r="1.67188" fill="#1F1F1E"/>
<circle cx="61.8594" cy="41.7969" r="1.67188" fill="#1F1F1E"/>
<circle cx="61.8594" cy="61.8594" r="1.67188" fill="#1F1F1E"/>
<circle cx="61.8594" cy="81.9219" r="1.67188" fill="#1F1F1E"/>
<circle cx="91.9531" cy="1.67188" r="1.67188" fill="#1F1F1E"/>
<circle cx="91.9531" cy="21.7344" r="1.67188" fill="#1F1F1E"/>
<circle cx="91.9531" cy="41.7969" r="1.67188" fill="#1F1F1E"/>
<circle cx="91.9531" cy="61.8594" r="1.67188" fill="#1F1F1E"/>
<circle cx="91.9531" cy="81.9219" r="1.67188" fill="#1F1F1E"/>
<circle cx="122.047" cy="1.67188" r="1.67188" fill="#1F1F1E"/>
<circle cx="122.047" cy="21.7344" r="1.67188" fill="#1F1F1E"/>
<circle cx="122.047" cy="41.7969" r="1.67188" fill="#1F1F1E"/>
<circle cx="122.047" cy="61.8594" r="1.67188" fill="#1F1F1E"/>
<circle cx="122.047" cy="81.9219" r="1.67188" fill="#1F1F1E"/>
<circle cx="152.141" cy="1.67188" r="1.67188" fill="#1F1F1E"/>
<circle cx="152.141" cy="21.7344" r="1.67188" fill="#1F1F1E"/>
<circle cx="152.141" cy="41.7969" r="1.67188" fill="#1F1F1E"/>
<circle cx="152.141" cy="61.8594" r="1.67188" fill="#1F1F1E"/>
<circle cx="152.141" cy="81.9219" r="1.67188" fill="#1F1F1E"/>
<circle cx="182.234" cy="1.67188" r="1.67188" fill="#1F1F1E"/>
<circle cx="182.234" cy="21.7344" r="1.67188" fill="#1F1F1E"/>
<circle cx="182.234" cy="41.7969" r="1.67188" fill="#1F1F1E"/>
<circle cx="182.234" cy="61.8594" r="1.67188" fill="#1F1F1E"/>
<circle cx="182.234" cy="81.9219" r="1.67188" fill="#1F1F1E"/>
<circle cx="212.328" cy="1.67188" r="1.67188" fill="#1F1F1E"/>
<circle cx="212.328" cy="21.7344" r="1.67188" fill="#1F1F1E"/>
<circle cx="212.328" cy="41.7969" r="1.67188" fill="#1F1F1E"/>
<circle cx="212.328" cy="61.8594" r="1.67188" fill="#1F1F1E"/>
<circle cx="212.328" cy="81.9219" r="1.67188" fill="#1F1F1E"/>
</svg>
