<svg width="40" height="40" viewBox="0 0 40 40" fill="none" xmlns="http://www.w3.org/2000/svg">
<g clip-path="url(#clip0_816_1067)">
<path d="M0 13.3333V23.3333H13.1833C12.7879 25.6609 11.5825 27.7737 9.78005 29.2986C7.97764 30.8235 5.69425 31.6622 3.33333 31.6666V35C6.86833 34.996 10.2574 33.59 12.757 31.0903C15.2567 28.5907 16.6627 25.2016 16.6667 21.6666V6.66663H6.66667C4.89856 6.66663 3.20286 7.369 1.95262 8.61925C0.702379 9.86949 0 11.5652 0 13.3333Z" fill="#313131"/>
<path d="M30 6.66663C28.2319 6.66663 26.5362 7.369 25.286 8.61925C24.0358 9.86949 23.3334 11.5652 23.3334 13.3333V23.3333H36.5167C36.1213 25.6609 34.9158 27.7737 33.1134 29.2986C31.311 30.8235 29.0276 31.6622 26.6667 31.6666V35C30.2017 34.996 33.5908 33.59 36.0904 31.0903C38.59 28.5907 39.9961 25.2016 40 21.6666V6.66663H30Z" fill="#313131"/>
</g>
<defs>
<clipPath id="clip0_816_1067">
<rect width="40" height="40" fill="white"/>
</clipPath>
</defs>
</svg>
