<svg width="40" height="40" viewBox="0 0 40 40" fill="none" xmlns="http://www.w3.org/2000/svg">
<g clip-path="url(#clip0_816_1072)">
<path d="M40 13.3333V23.3333H26.8167C27.2121 25.6609 28.4175 27.7737 30.2199 29.2986C32.0224 30.8235 34.3057 31.6622 36.6667 31.6666V35C33.1317 34.996 29.7426 33.59 27.243 31.0903C24.7433 28.5907 23.3373 25.2016 23.3333 21.6666V6.66663H33.3333C35.1014 6.66663 36.7971 7.369 38.0474 8.61925C39.2976 9.86949 40 11.5652 40 13.3333Z" fill="#313131"/>
<path d="M9.99996 6.66663C11.7681 6.66663 13.4638 7.369 14.714 8.61925C15.9642 9.86949 16.6666 11.5652 16.6666 13.3333V23.3333H3.48329C3.87874 25.6609 5.08416 27.7737 6.88657 29.2986C8.68899 30.8235 10.9724 31.6622 13.3333 31.6666V35C9.79829 34.996 6.40921 33.59 3.90959 31.0903C1.40996 28.5907 0.0039287 25.2016 -4.14848e-05 21.6666V6.66663H9.99996Z" fill="#313131"/>
</g>
<defs>
<clipPath id="clip0_816_1072">
<rect width="40" height="40" fill="white" transform="matrix(-1 0 0 1 40 0)"/>
</clipPath>
</defs>
</svg>
